<svg width="1920" height="1080" viewBox="0 0 1920 1080" fill="none" xmlns="http://www.w3.org/2000/svg">
<rect width="1920" height="1080" fill="#240046"/>
<path fill-rule="evenodd" clip-rule="evenodd" d="M1920 928.111L1873.6 909.593C1828.8 891.074 1737.6 854.037 1646.4 854.037C1553.6 854.037 1462.4 891.074 1371.2 914.222C1280 937.37 1188.8 946.63 1097.6 923.481C1006.4 900.333 913.6 844.778 822.4 858.667C731.2 872.556 640 955.889 548.8 983.667C457.6 1011.44 366.4 983.667 273.6 946.63C182.4 909.593 91.2 863.296 46.4 840.148L-2.86102e-05 817V1067H46.4C91.2 1067 182.4 1067 273.6 1067C366.4 1067 457.6 1067 548.8 1067C640 1067 731.2 1067 822.4 1067C913.6 1067 1006.4 1067 1097.6 1067C1188.8 1067 1280 1067 1371.2 1067C1462.4 1067 1553.6 1067 1646.4 1067C1737.6 1067 1828.8 1067 1873.6 1067H1920V928.111Z" fill="#3C096C"/>
<path fill-rule="evenodd" clip-rule="evenodd" d="M0 973.862L52.8 982.707C107.2 991.552 212.8 1009.24 320 991.552C427.2 973.862 532.8 920.793 640 925.216C747.2 929.638 852.8 991.552 960 1026.93C1067.2 1062.31 1172.8 1071.16 1280 1031.35C1387.2 991.552 1492.8 903.104 1600 889.837C1707.2 876.569 1812.8 938.483 1867.2 969.44L1920 1000.4V1080H1867.2C1812.8 1080 1707.2 1080 1600 1080C1492.8 1080 1387.2 1080 1280 1080C1172.8 1080 1067.2 1080 960 1080C852.8 1080 747.2 1080 640 1080C532.8 1080 427.2 1080 320 1080C212.8 1080 107.2 1080 52.8 1080H0V973.862Z" fill="#5A189A"/>
</svg>
