<svg width="510" height="141" viewBox="0 0 510 141" fill="none" xmlns="http://www.w3.org/2000/svg">
<g filter="url(#filter0_d)">
<path d="M16.2134 111.671L11.7058 57.1566L8.88854 47.3554L10.487 41.2028L29.522 39.6288L52.1868 75.8844L54.18 75.7196L67.1934 36.5138L87.0258 34.874L88.5168 40.7711L88.3113 50.4209L92.8519 105.333L74.8135 106.825L74.412 98.3292L72.1128 70.5241L71.0166 70.6148L67.8213 80.5118L60.2363 97.9963L48.2771 98.9852L32.3485 73.8122L31.3519 73.8946L32.0194 81.967L35.3481 110.088L16.2134 111.671Z" fill="#C77DFF"/>
<path d="M133.523 104.304C128.396 104.558 123.797 104.019 119.726 102.686C115.655 101.352 112.398 98.9442 109.956 95.461C107.514 91.9777 106.141 87.1732 105.837 81.0474C105.618 76.6528 106.164 72.8545 107.474 69.6523C108.85 66.4468 110.755 63.8158 113.19 61.7593C115.621 59.6362 118.379 58.0642 121.466 57.0433C124.549 55.9558 127.755 55.3295 131.085 55.1642C136.811 54.8801 141.234 55.228 144.353 56.2079C147.538 57.1846 149.647 57.981 150.679 58.5973L156.461 74.23L154.771 80.5215L123.809 82.0579C124.397 84.4984 125.731 86.5014 127.811 88.0669C129.892 89.6324 133.229 90.3012 137.823 90.0732C141.419 89.8947 144.495 89.3416 147.052 88.4137C149.609 87.4858 151.606 86.6859 153.041 86.014L153.705 99.3975C151.76 100.562 148.91 101.638 145.154 102.625C141.462 103.543 137.585 104.102 133.523 104.304ZM123.591 75.6608L137.275 72.9793L136.163 68.7292C135.684 68.486 134.975 68.3209 134.036 68.234C133.164 68.1438 132.395 68.1152 131.729 68.1483C129.865 68.2408 128.32 68.7179 127.094 69.5797C125.935 70.4382 125.051 71.45 124.441 72.615C123.895 73.71 123.612 74.7253 123.591 75.6608Z" fill="#C77DFF"/>
<path d="M168.315 60.3584L171.312 54.2075L186.21 53.9592L186.282 58.2586L187.192 58.8435C187.914 58.1647 188.901 57.3815 190.153 56.4939C191.471 55.5384 193.057 54.6786 194.911 53.9142C196.765 53.1499 198.859 52.7483 201.192 52.7094C208.124 52.5938 213.128 54.8107 216.205 59.3601C217.377 57.6737 219.15 56.0772 221.525 54.5707C223.966 52.9965 227.353 52.1733 231.686 52.1011C237.685 52.0011 242.213 53.6258 245.269 56.9754C248.325 60.3249 249.904 65.0659 250.007 71.1984L250.22 83.9966L252.486 93.9602L250.488 100.094L232.491 100.394L232.052 74.098C232.01 71.565 231.411 69.6414 230.256 68.3272C229.166 66.9451 227.455 66.2736 225.122 66.3124C223.589 66.338 222.265 66.9268 221.151 68.0789C220.036 69.2309 219.494 70.6735 219.522 72.4066L219.992 100.603L201.995 100.903L201.558 74.7063C201.516 72.1733 200.917 70.2497 199.762 68.9355C198.672 67.5534 196.961 66.8819 194.628 66.9207L188.46 68.9238L188.997 101.119L170.999 101.419L170.498 71.3235L168.315 60.3584Z" fill="#C77DFF"/>
<path d="M289.639 101.738C281.507 101.606 275.239 99.5701 270.836 95.6314C266.433 91.6926 264.302 85.3905 264.443 76.725C264.584 67.9928 266.919 61.7632 271.447 58.0363C275.976 54.2427 282.307 52.412 290.439 52.5442C298.771 52.6796 305.039 54.7151 309.242 58.6505C313.513 62.5205 315.578 68.8215 315.436 77.5537C315.295 86.2192 313.027 92.4498 308.631 96.2456C304.302 100.042 297.972 101.873 289.639 101.738ZM289.851 88.7394C292.584 88.7838 294.5 87.8148 295.599 85.8324C296.699 83.7834 297.279 80.9258 297.338 77.2596C297.399 73.5267 296.912 70.6518 295.878 68.6347C294.844 66.6176 292.961 65.5869 290.228 65.5425C287.428 65.497 285.445 66.4649 284.28 68.4462C283.181 70.4286 282.601 73.2862 282.54 77.0191C282.481 80.6853 282.967 83.5602 284 85.6439C285.101 87.6621 287.051 88.6939 289.851 88.7394Z" fill="#C77DFF"/>
<path d="M328.335 101.619L329.58 70.3434L327.88 60.2677L330.217 54.356L343.806 54.897L345.713 57.2748C345.713 57.2748 346.19 57.0269 347.144 56.5311C348.1 55.9687 349.422 55.4542 351.108 54.9876C352.862 54.5237 354.871 54.3368 357.135 54.4269C358.468 54.48 359.796 54.6329 361.12 54.8858C362.445 55.1387 363.467 55.4463 364.186 55.8085L370.462 61.5627L363.458 74.094L350.487 68.0733L347.45 68.9531L346.121 102.327L328.335 101.619Z" fill="#C77DFF"/>
<path d="M382.463 128.341L368.703 122.47L373.626 107.849L387.349 112.716C390.21 112.895 392.32 112.259 393.68 110.807C395.102 109.427 396.23 107.427 397.062 104.807L386.782 104.164L377.939 69.3432L376.855 56.2499L395.818 57.4367L399.246 90.7158L401.242 90.8407L408.792 58.2486L427.755 59.4354C427.755 59.4354 427.456 60.4854 426.857 62.5854C426.328 64.623 425.557 67.3468 424.542 70.7568C423.593 74.1709 422.456 77.9405 421.129 82.0657C419.873 86.1285 418.546 90.2536 417.148 94.4412C415.755 98.5622 414.349 102.348 412.93 105.8C410.788 111.21 408.341 115.632 405.587 119.067C402.901 122.506 399.707 124.978 396.006 126.483C392.3 128.055 387.786 128.674 382.463 128.341Z" fill="#C77DFF"/>
<path d="M452.364 108.931L457.21 54.3458L437.2 53.5733L438.703 36.6399L496.974 41.8128L495.471 58.7462L475.139 55.9374L471.708 94.5854L471.92 104.644L470.294 110.523L452.364 108.931Z" fill="#C77DFF"/>
</g>
<defs>
<filter id="filter0_d" x="5.88855" y="30.874" width="504.085" height="109.554" filterUnits="userSpaceOnUse" color-interpolation-filters="sRGB">
<feFlood flood-opacity="0" result="BackgroundImageFix"/>
<feColorMatrix in="SourceAlpha" type="matrix" values="0 0 0 0 0 0 0 0 0 0 0 0 0 0 0 0 0 0 127 0"/>
<feOffset dx="5" dy="4"/>
<feGaussianBlur stdDeviation="4"/>
<feColorMatrix type="matrix" values="0 0 0 0 0.235294 0 0 0 0 0.0352941 0 0 0 0 0.423529 0 0 0 0.25 0"/>
<feBlend mode="normal" in2="BackgroundImageFix" result="effect1_dropShadow"/>
<feBlend mode="normal" in="SourceGraphic" in2="effect1_dropShadow" result="shape"/>
</filter>
</defs>
</svg>
