<svg width="1000" height="292" viewBox="0 0 1000 292" fill="none" xmlns="http://www.w3.org/2000/svg">
<g filter="url(#filter0_d)">
<path d="M45.1725 239.552L29.0388 131.349L22.133 112.157L24.5174 99.669L62.2997 94.0355L112.279 163.423L116.235 162.834L137.073 82.8864L176.438 77.0169L180.186 88.5907L181.039 107.876L197.291 216.871L161.487 222.209L159.573 205.307L151.344 150.117L149.168 150.441L144.087 170.611L131.239 206.498L107.501 210.038L72.4165 161.885L70.4384 162.18L72.8274 178.203L83.1526 233.889L45.1725 239.552Z" fill="#C77DFF"/>
<path d="M272.919 212.289C262.692 213.197 253.459 212.477 245.219 210.129C236.98 207.781 230.284 203.222 225.132 196.451C219.98 189.68 216.862 180.185 215.778 167.966C215 159.201 215.795 151.567 218.163 145.066C220.664 138.553 224.267 133.146 228.972 128.847C233.665 124.415 239.056 121.059 245.145 118.778C251.222 116.365 257.581 114.864 264.222 114.274C275.644 113.261 284.509 113.612 290.819 115.328C297.262 117.032 301.538 118.459 303.648 119.611L316.419 150.403L313.531 163.108L251.773 168.587C253.139 173.419 255.961 177.318 260.24 180.285C264.519 183.251 271.241 184.328 280.405 183.515C287.577 182.879 293.682 181.534 298.72 179.481C303.758 177.427 307.685 175.673 310.501 174.219L312.87 200.914C309.074 203.392 303.462 205.764 296.033 208.03C288.725 210.151 281.02 211.571 272.919 212.289ZM250.841 155.82L277.98 149.396L275.427 140.989C274.45 140.54 273.02 140.265 271.137 140.165C269.387 140.052 267.848 140.055 266.52 140.173C262.801 140.503 259.751 141.576 257.369 143.394C255.12 145.2 253.431 147.291 252.303 149.666C251.296 151.897 250.809 153.949 250.841 155.82Z" fill="#C77DFF"/>
<path d="M335.608 121.851L341.452 109.476L371.239 108.613L371.488 117.209L373.322 118.356C374.75 116.981 376.704 115.39 379.186 113.584C381.798 111.641 384.948 109.883 388.638 108.308C392.327 106.734 396.504 105.879 401.168 105.744C415.029 105.342 425.092 109.653 431.356 118.675C433.658 115.273 437.166 112.037 441.879 108.966C446.721 105.758 453.474 104.028 462.137 103.777C474.132 103.429 483.227 106.567 489.421 113.19C495.616 119.813 498.891 129.256 499.246 141.517L499.988 167.107L504.766 186.976L500.921 199.293L464.936 200.336L463.412 147.758C463.265 142.694 462.02 138.862 459.677 136.262C457.464 133.525 454.025 132.224 449.36 132.359C446.295 132.448 443.662 133.658 441.462 135.989C439.262 138.321 438.212 141.219 438.312 144.684L439.947 201.061L403.962 202.104L402.443 149.726C402.297 144.661 401.052 140.829 398.709 138.229C396.495 135.492 393.056 134.191 388.391 134.326L376.107 138.484L377.973 202.857L341.988 203.9L340.243 143.726L335.608 121.851Z" fill="#C77DFF"/>
<path d="M573.559 203.705C557.3 203.209 544.824 198.959 536.131 190.956C527.438 182.954 523.356 170.29 523.885 152.965C524.418 135.506 529.265 123.115 538.427 115.792C547.592 108.335 560.304 104.854 576.563 105.351C593.222 105.86 605.698 110.109 613.991 118.1C622.422 125.961 626.371 138.621 625.837 156.079C625.308 173.404 620.594 185.8 611.695 193.265C602.93 200.734 590.218 204.214 573.559 203.705ZM574.353 177.717C579.817 177.884 583.676 176.001 585.931 172.068C588.189 168.002 589.43 162.304 589.654 154.974C589.882 147.511 588.991 141.747 586.981 137.684C584.971 133.621 581.234 131.506 575.769 131.339C570.172 131.168 566.179 133.047 563.792 136.976C561.537 140.909 560.296 146.607 560.068 154.07C559.844 161.4 560.735 167.163 562.741 171.36C564.885 175.427 568.755 177.546 574.353 177.717Z" fill="#C77DFF"/>
<path d="M645.495 204.687L650.032 142.251L647.293 121.999L652.352 110.335L679.48 112.307L683.136 117.185C683.136 117.185 684.106 116.721 686.045 115.792C687.994 114.73 690.669 113.789 694.071 112.966C697.606 112.154 701.634 111.912 706.155 112.24C708.815 112.434 711.46 112.826 714.091 113.419C716.722 114.011 718.744 114.693 720.159 115.464L732.327 127.377L717.506 151.968L691.972 139.083L685.843 140.643L681.001 207.267L645.495 204.687Z" fill="#C77DFF"/>
<path d="M745.648 261.452L718.756 248.336L730.065 219.628L756.984 230.734C762.681 231.381 766.961 230.323 769.824 227.562C772.805 224.948 775.258 221.067 777.184 215.918L756.715 213.595L742.569 143.15L741.725 116.887L779.483 121.172L782.97 187.992L786.945 188.443L805.317 124.104L843.074 128.389C843.074 128.389 842.37 130.456 840.962 134.591C839.701 138.607 837.884 143.97 835.513 150.679C833.274 157.403 830.621 164.817 827.554 172.923C824.634 180.912 821.567 189.017 818.353 197.241C815.153 205.332 811.963 212.753 808.781 219.503C803.956 230.094 798.621 238.68 792.774 245.263C787.061 251.861 780.431 256.476 772.886 259.108C765.326 261.874 756.247 262.655 745.648 261.452Z" fill="#C77DFF"/>
<path d="M881.673 229.879L899.079 121.67L859.269 117.292L864.669 83.7238L980.184 102.305L974.784 135.874L934.622 127.388L922.298 204.003L921.294 224.098L917.216 235.597L881.673 229.879Z" fill="#C77DFF"/>
</g>
<defs>
<filter id="filter0_d" x="22.1331" y="77.0171" width="977.051" height="192.982" filterUnits="userSpaceOnUse" color-interpolation-filters="sRGB">
<feFlood flood-opacity="0" result="BackgroundImageFix"/>
<feColorMatrix in="SourceAlpha" type="matrix" values="0 0 0 0 0 0 0 0 0 0 0 0 0 0 0 0 0 0 127 0"/>
<feOffset dx="15" dy="4"/>
<feGaussianBlur stdDeviation="2"/>
<feColorMatrix type="matrix" values="0 0 0 0 0.0627451 0 0 0 0 0 0 0 0 0 0.168627 0 0 0 0.25 0"/>
<feBlend mode="normal" in2="BackgroundImageFix" result="effect1_dropShadow"/>
<feBlend mode="normal" in="SourceGraphic" in2="effect1_dropShadow" result="shape"/>
</filter>
</defs>
</svg>
