<svg width="1024" height="1080" viewBox="0 0 1024 1080" fill="none" xmlns="http://www.w3.org/2000/svg">
<rect width="1024" height="1080" fill="#240046"/>
<path fill-rule="evenodd" clip-rule="evenodd" d="M1024 980.556L999.253 967.296C975.36 954.037 926.72 927.519 878.08 927.519C828.587 927.519 779.947 954.037 731.307 970.611C682.667 987.185 634.027 993.815 585.387 977.241C536.747 960.667 487.253 920.889 438.613 930.833C389.973 940.778 341.333 1000.44 292.693 1020.33C244.053 1040.22 195.413 1020.33 145.92 993.815C97.28 967.296 48.64 934.148 24.7466 917.574L0 901V1080H24.7466C48.64 1080 97.28 1080 145.92 1080C195.413 1080 244.053 1080 292.693 1080C341.333 1080 389.973 1080 438.613 1080C487.253 1080 536.747 1080 585.387 1080C634.027 1080 682.667 1080 731.307 1080C779.947 1080 828.587 1080 878.08 1080C926.72 1080 975.36 1080 999.253 1080H1024V980.556Z" fill="#3C096C"/>
<path fill-rule="evenodd" clip-rule="evenodd" d="M0 1015.32L28.16 1020.71C57.1733 1026.1 113.493 1036.88 170.667 1026.1C227.84 1015.32 284.16 982.984 341.333 985.678C398.507 988.373 454.827 1026.1 512 1047.66C569.173 1069.22 625.493 1074.61 682.667 1050.36C739.84 1026.1 796.16 972.204 853.333 964.119C910.507 956.035 966.827 993.763 995.84 1012.63L1024 1031.49V1080H995.84C966.827 1080 910.507 1080 853.333 1080C796.16 1080 739.84 1080 682.667 1080C625.493 1080 569.173 1080 512 1080C454.827 1080 398.507 1080 341.333 1080C284.16 1080 227.84 1080 170.667 1080C113.493 1080 57.1733 1080 28.16 1080H0V1015.32Z" fill="#5A189A"/>
</svg>
